<svg width="92" height="58" viewBox="0 0 92 58" fill="none" xmlns="http://www.w3.org/2000/svg">
<g clip-path="url(#clip0_1_12394)">
<path d="M2.18254 56.0321C2.18254 56.156 2.19313 56.2438 2.21429 56.2949C2.23548 56.3421 2.27782 56.374 2.34133 56.391C2.40909 56.4084 2.52344 56.4167 2.68436 56.4167C3.04011 56.4167 3.29209 56.3997 3.44029 56.3654C3.59275 56.3313 3.70076 56.2629 3.76426 56.1605C3.8278 56.0578 3.8765 55.8825 3.91039 55.6346L4.18988 55.6027L4.20894 55.6346C4.19625 55.6946 4.17083 55.8335 4.13271 56.0515C4.0946 56.265 4.06284 56.4851 4.03743 56.7118L4.00567 56.75C3.86168 56.7458 3.56736 56.7375 3.12268 56.7246C2.67803 56.7118 2.33076 56.7052 2.08089 56.7052C1.88185 56.7052 1.69551 56.7139 1.52189 56.7309C1.35248 56.7479 1.24449 56.7608 1.19791 56.7694L1.23602 56.4744C1.42661 56.449 1.55575 56.3997 1.62351 56.3271C1.69551 56.2501 1.73149 56.1199 1.73149 55.9359L1.73786 53.2434C1.73786 53.1067 1.72093 53.015 1.68705 52.9678C1.65739 52.9209 1.59599 52.8973 1.50284 52.8973C1.46046 52.8973 1.41812 52.8994 1.37577 52.9039C1.33342 52.9081 1.30378 52.9102 1.28684 52.9102L1.27414 52.8845L1.3186 52.6026C1.37366 52.6068 1.48378 52.6109 1.64893 52.6154C1.81832 52.6196 2.00256 52.6217 2.20159 52.6217C2.70555 52.6217 3.09729 52.6175 3.37678 52.6089C3.65628 52.596 3.89979 52.5748 4.10729 52.5446L4.12635 52.5832C4.12212 52.6089 4.10942 52.671 4.08824 52.7692C4.07131 52.8633 4.05225 52.9893 4.03106 53.1473C4.0099 53.3056 3.99295 53.4722 3.98025 53.6475L3.67534 53.6732C3.67534 53.6517 3.67747 53.6152 3.6817 53.5642C3.68593 53.5086 3.68803 53.4531 3.68803 53.3972C3.68803 53.2479 3.66897 53.1452 3.63086 53.0897C3.59275 53.0299 3.51018 52.9914 3.38311 52.9744C3.25608 52.9529 3.03375 52.9421 2.71614 52.9421C2.56791 52.9421 2.46626 52.9466 2.41122 52.955C2.35615 52.9636 2.32017 52.9848 2.30321 53.0192C2.28629 53.049 2.27569 53.1067 2.27146 53.1924L2.22065 54.4359L2.87493 54.4425C2.97235 54.4425 3.10998 54.4338 3.28786 54.4168C3.46994 54.3953 3.59064 54.3803 3.64992 54.3717L3.67534 54.4039L3.58641 54.782C3.52711 54.7778 3.41067 54.7736 3.23702 54.7692C3.06763 54.765 2.88766 54.7629 2.69708 54.7629C2.54039 54.7629 2.37734 54.7778 2.20793 54.8077C2.191 55.4232 2.18254 55.8314 2.18254 56.0321ZM6.59631 56.7823C6.53278 56.7736 6.39724 56.7587 6.18974 56.7375C5.98648 56.716 5.81706 56.7052 5.68156 56.7052C5.55026 56.7052 5.4063 56.716 5.24961 56.7375C5.09715 56.7587 4.9976 56.7736 4.95102 56.7823L4.98914 56.4872C5.18394 56.449 5.31524 56.3934 5.38301 56.3206C5.45074 56.2438 5.48463 56.1154 5.48463 55.9359L5.49099 53.2434C5.49099 53.1067 5.47403 53.015 5.44018 52.9678C5.41053 52.9209 5.34912 52.8973 5.25594 52.8973C5.21359 52.8973 5.17125 52.8994 5.1289 52.9039C5.08655 52.9081 5.0569 52.9102 5.03998 52.9102L5.02725 52.8845L5.07173 52.6026C5.11831 52.6068 5.20723 52.6109 5.33853 52.6154C5.4698 52.6196 5.6032 52.6217 5.73873 52.6217C5.92084 52.6217 6.10928 52.6196 6.30409 52.6154C6.49889 52.6068 6.6323 52.6002 6.70429 52.596C7.11086 52.596 7.47292 52.6772 7.79056 52.8397C8.10817 52.9977 8.35378 53.2222 8.52743 53.5128C8.70531 53.8034 8.79423 54.1367 8.79423 54.5129C8.79423 54.9316 8.69682 55.3142 8.50201 55.6603C8.30721 56.0064 8.04253 56.28 7.70797 56.4809C7.3734 56.6816 7.00285 56.7823 6.59631 56.7823ZM6.26597 52.9102C6.17705 52.9102 6.11775 52.9209 6.0881 52.9421C6.05848 52.9594 6.04152 52.9956 6.03729 53.0511C5.97375 54.6966 5.942 55.6346 5.942 55.8655C5.942 56.0279 5.96319 56.1497 6.00554 56.231C6.05211 56.3122 6.13044 56.3698 6.24056 56.4039C6.3549 56.4382 6.52218 56.4553 6.74241 56.4553C7.19978 56.4553 7.55974 56.2973 7.82231 55.9807C8.08488 55.6603 8.21615 55.2222 8.21615 54.6667C8.21615 54.1026 8.04677 53.6687 7.70797 53.3653C7.3734 53.0619 6.89274 52.9102 6.26597 52.9102ZM10.218 55.1027C10.218 55.5256 10.309 55.8505 10.4911 56.0769C10.6732 56.3035 10.9358 56.4167 11.2788 56.4167C11.6261 56.4167 11.8907 56.325 12.0729 56.1411C12.255 55.953 12.346 55.6839 12.346 55.3333C12.3418 54.9914 12.3354 54.6025 12.327 54.1665C12.3185 53.7263 12.3121 53.4187 12.3079 53.2434C12.2994 53.0938 12.2804 53.0001 12.2507 52.9615C12.2253 52.9188 12.166 52.8973 12.0729 52.8973C12.022 52.8973 11.9691 52.8994 11.914 52.9039C11.859 52.9081 11.8209 52.9102 11.7997 52.9102L11.787 52.8845L11.8315 52.6026C11.8823 52.6068 11.9776 52.6109 12.1173 52.6154C12.2613 52.6196 12.4053 52.6217 12.5493 52.6217C12.6636 52.6217 12.7843 52.6154 12.9114 52.6026C13.0426 52.5853 13.1274 52.5724 13.1655 52.5641L13.1401 52.8525C13.013 52.8696 12.9177 52.8911 12.8542 52.9164C12.7949 52.9379 12.7547 52.9723 12.7335 53.0192C12.7123 53.0619 12.7017 53.1282 12.7017 53.2178V55.3718C12.7017 55.8207 12.5641 56.1689 12.2888 56.4167C12.0136 56.6604 11.6261 56.7823 11.1264 56.7823C10.6817 56.7823 10.3386 56.6604 10.0973 56.4167C9.85588 56.1689 9.73517 55.8186 9.73517 55.3655V53.2434C9.73517 53.1067 9.71824 53.015 9.68436 52.9678C9.65471 52.9209 9.59331 52.8973 9.50015 52.8973C9.45778 52.8973 9.41543 52.8994 9.37308 52.9039C9.33074 52.9081 9.30109 52.9102 9.28416 52.9102L9.27146 52.8845L9.31591 52.6026C9.36675 52.6068 9.46204 52.6109 9.60177 52.6154C9.74577 52.6196 9.88976 52.6217 10.0337 52.6217C10.1481 52.6217 10.2772 52.6154 10.4212 52.6026C10.5652 52.5853 10.6584 52.5724 10.7007 52.5641L10.6753 52.8525C10.5187 52.8737 10.4128 52.9102 10.3577 52.9615C10.3069 53.0084 10.2772 53.0938 10.2688 53.2178L10.218 55.1027ZM15.5264 56.7823C15.1453 56.7823 14.8107 56.701 14.5228 56.5386C14.2348 56.3761 14.0124 56.1477 13.8558 55.8526C13.7033 55.5534 13.6271 55.2031 13.6271 54.8014C13.6271 54.3741 13.7223 53.9894 13.9129 53.6475C14.1035 53.3011 14.3661 53.032 14.7006 52.8397C15.0394 52.6432 15.4205 52.5446 15.844 52.5446C16.0007 52.5446 16.1596 52.5575 16.3205 52.5832C16.4856 52.6047 16.6233 52.628 16.7334 52.6536C16.8477 52.6751 16.9197 52.6901 16.9494 52.6987L16.9748 52.737C16.9663 52.7626 16.9515 52.8248 16.9303 52.923C16.9134 53.0213 16.8922 53.1494 16.8668 53.3077C16.8456 53.4656 16.8287 53.6326 16.816 53.8076L16.511 53.8333C16.5153 53.812 16.5195 53.7735 16.5237 53.718C16.528 53.658 16.5301 53.592 16.5301 53.5191C16.5301 53.1216 16.2188 52.923 15.5963 52.923C15.3168 52.923 15.0712 52.9914 14.8594 53.1282C14.6477 53.2649 14.4846 53.4594 14.3703 53.7114C14.256 53.9593 14.1988 54.2522 14.1988 54.5897C14.1988 54.9615 14.2581 55.2885 14.3766 55.5707C14.4995 55.8526 14.671 56.0727 14.8912 56.231C15.1114 56.3848 15.3655 56.4615 15.6535 56.4615C15.9415 56.4615 16.1722 56.3806 16.3459 56.2181C16.5237 56.0515 16.6529 55.795 16.7334 55.4489L17.0383 55.4232C17.0256 55.4874 16.9981 55.6304 16.9557 55.8526C16.9134 56.0706 16.8837 56.2758 16.8668 56.4681L16.8287 56.5257C16.8287 56.5299 16.763 56.5556 16.6318 56.6028C16.5047 56.6455 16.3438 56.6861 16.149 56.7246C15.9584 56.7628 15.7509 56.7823 15.5264 56.7823ZM20.4998 55.9807C20.5506 56.139 20.6183 56.2501 20.703 56.3143C20.7877 56.3782 20.9233 56.4188 21.1096 56.4361L21.1223 56.4615L21.0778 56.7246C21.027 56.7246 20.9338 56.7201 20.7983 56.7118C20.667 56.7073 20.5357 56.7052 20.4045 56.7052C20.2012 56.7052 20.0043 56.7139 19.8137 56.7309C19.6274 56.7479 19.5088 56.7608 19.458 56.7694L19.4389 56.7246L19.4643 56.4744C19.6803 56.4573 19.8285 56.4317 19.909 56.3976C19.9894 56.3633 20.0297 56.3077 20.0297 56.231C20.0297 56.1453 20.0106 56.0428 19.9725 55.9231L19.7629 55.2243C19.6612 55.2201 19.441 55.218 19.1022 55.218C18.8989 55.218 18.6682 55.235 18.4098 55.2694L18.1748 55.9359C18.1367 56.0515 18.1176 56.1348 18.1176 56.1859C18.1176 56.28 18.1473 56.3483 18.2066 56.391C18.2658 56.4296 18.3632 56.449 18.4987 56.449H18.8608L18.8735 56.4744L18.8354 56.75C18.7846 56.7458 18.6682 56.7375 18.4861 56.7246C18.3039 56.7118 18.1261 56.7052 17.9524 56.7052C17.7958 56.7052 17.6497 56.7073 17.5141 56.7118C17.3829 56.716 17.296 56.7201 17.2537 56.7246L17.3045 56.4233C17.4231 56.4105 17.5184 56.3698 17.5904 56.3015C17.6624 56.2289 17.7322 56.105 17.8 55.9297L19.0387 52.6536L19.4389 52.5446H19.4897C19.5151 52.6474 19.5786 52.8845 19.6803 53.2563C19.7862 53.6281 19.9132 54.0683 20.0614 54.5768C20.2139 55.0854 20.36 55.5534 20.4998 55.9807ZM19.0832 54.9552C19.2314 54.9552 19.4283 54.9445 19.6739 54.9233L19.1721 53.2434H19.1276L18.5242 54.9552H19.0832ZM22.3283 52.8717C21.9641 52.8887 21.7185 52.9123 21.5914 52.9421C21.4644 52.9723 21.3776 53.0341 21.331 53.1282C21.2844 53.2222 21.242 53.4059 21.2039 53.6795L20.9054 53.7051C20.9138 53.6409 20.9287 53.4979 20.9498 53.2757C20.9752 53.049 20.9922 52.8227 21.0007 52.596L21.0578 52.5446L21.5851 52.6154H23.5543L24.0943 52.5446L24.1515 52.596C24.1599 52.8227 24.1747 53.0449 24.1959 53.2629C24.2213 53.4809 24.2382 53.6197 24.2467 53.6795L23.9482 53.7051C23.9016 53.4229 23.855 53.2327 23.8084 53.1344C23.7618 53.0362 23.6793 52.9723 23.5607 52.9421C23.4421 52.9123 23.2134 52.8887 22.8746 52.8717C22.8492 53.1282 22.8259 53.5812 22.8047 54.2307C22.7836 54.8803 22.773 55.4659 22.773 55.9873C22.773 56.1453 22.8005 56.2588 22.8556 56.3271C22.9106 56.391 23.0038 56.4233 23.1351 56.4233C23.2282 56.4233 23.3045 56.4212 23.3637 56.4167C23.4273 56.4126 23.4675 56.4084 23.4844 56.4039L23.5035 56.4296L23.4463 56.7246C23.3786 56.7246 23.2515 56.7201 23.0652 56.7118C22.8788 56.7073 22.6946 56.7052 22.5125 56.7052C22.3346 56.7052 22.161 56.7073 21.9916 56.7118C21.8222 56.7201 21.7058 56.7267 21.6423 56.7309L21.6931 56.4553C21.9048 56.4382 22.0509 56.4125 22.1314 56.3782C22.2118 56.34 22.2648 56.2737 22.2902 56.1796C22.3156 56.0814 22.3283 55.9102 22.3283 55.6669V52.8717ZM25.7579 53.2178C25.7325 53.718 25.7114 54.2415 25.6944 54.7886C25.6775 55.3312 25.669 55.7308 25.669 55.9873C25.669 56.1626 25.6881 56.28 25.7262 56.34C25.7643 56.3955 25.8384 56.4233 25.9485 56.4233C26.0247 56.4233 26.0946 56.4212 26.1581 56.4167C26.2217 56.4126 26.264 56.4084 26.2852 56.4039L26.2979 56.4296L26.2407 56.7246C26.1814 56.7201 26.0692 56.716 25.904 56.7118C25.7431 56.7073 25.578 56.7052 25.4086 56.7052C25.2731 56.7052 25.127 56.716 24.9703 56.7375C24.8178 56.7587 24.7183 56.7736 24.6717 56.7823L24.7098 56.4872C24.9089 56.449 25.0422 56.3934 25.11 56.3206C25.182 56.2438 25.218 56.1154 25.218 55.9359L25.2243 53.2434C25.2243 53.1067 25.2074 53.015 25.1735 52.9678C25.1439 52.9209 25.0825 52.8973 24.9893 52.8973C24.9342 52.8973 24.8792 52.8994 24.8241 52.9039C24.7733 52.9081 24.7394 52.9102 24.7225 52.9102L24.7098 52.8845L24.7543 52.6026C24.8093 52.6068 24.911 52.6109 25.0592 52.6154C25.2074 52.6196 25.3577 52.6217 25.5102 52.6217C25.633 52.6217 25.7728 52.6154 25.9295 52.6026C26.0904 52.5853 26.1941 52.5724 26.2407 52.5641L26.2153 52.8525C26.0374 52.8737 25.9189 52.9102 25.8596 52.9615C25.8003 53.0084 25.7664 53.0938 25.7579 53.2178ZM28.625 56.7823C28.282 56.7823 27.977 56.6989 27.7102 56.5323C27.4434 56.3654 27.2359 56.1327 27.0877 55.8335C26.9395 55.5301 26.8653 55.1861 26.8653 54.8014C26.8653 54.3824 26.9564 54.002 27.1385 53.6603C27.3248 53.3139 27.5768 53.0428 27.8944 52.846C28.2163 52.6453 28.57 52.5446 28.9553 52.5446C29.3068 52.5446 29.6181 52.628 29.8892 52.7949C30.1602 52.9615 30.3718 53.1945 30.5242 53.4934C30.6769 53.7926 30.753 54.1346 30.753 54.5192C30.753 54.9382 30.6577 55.3204 30.4671 55.6669C30.2807 56.013 30.0247 56.2865 29.6986 56.4872C29.3766 56.684 29.0189 56.7823 28.625 56.7823ZM28.8218 56.4553C29.0887 56.4553 29.3257 56.3848 29.5335 56.2438C29.7409 56.1026 29.9019 55.9061 30.0161 55.654C30.1304 55.4017 30.1878 55.1132 30.1878 54.7886C30.1878 54.4251 30.1262 54.1047 30.0034 53.827C29.8806 53.5448 29.709 53.3247 29.4888 53.1667C29.2728 53.0084 29.023 52.9293 28.7392 52.9293C28.4809 52.9293 28.2501 53.0001 28.0469 53.141C27.8479 53.282 27.6912 53.4785 27.5768 53.7308C27.4667 53.9829 27.4117 54.2713 27.4117 54.5963C27.4117 54.9594 27.4709 55.2822 27.5895 55.5641C27.7081 55.8419 27.8733 56.0599 28.0849 56.2181C28.301 56.3761 28.5466 56.4553 28.8218 56.4553ZM34.5413 53.1795C34.5413 52.9956 34.4715 52.9039 34.3318 52.9039L34.0904 52.9102L34.0776 52.8845L34.135 52.596C34.1774 52.6002 34.2579 52.6068 34.3762 52.6154C34.4949 52.6196 34.6156 52.6217 34.7384 52.6217C34.8485 52.6217 34.9692 52.6154 35.1003 52.6026C35.2359 52.5853 35.3249 52.5748 35.3673 52.5703L35.3356 52.8654C35.1873 52.8866 35.0793 52.9293 35.0116 52.9935C34.9438 53.0532 34.9077 53.1452 34.9035 53.2691L34.8145 56.8718L34.6304 56.9617C34.262 56.3848 33.9019 55.8356 33.5506 55.3142C33.2032 54.7886 32.9173 54.3654 32.693 54.045C32.4684 53.7201 32.3267 53.5149 32.2672 53.4295H32.2355L32.2039 56.1668C32.2039 56.2608 32.2187 56.3271 32.2483 56.3654C32.2778 56.4039 32.3287 56.4233 32.4007 56.4233L32.7247 56.4167L32.7374 56.4424L32.6803 56.7309C32.6335 56.7267 32.5383 56.7201 32.3944 56.7118C32.2503 56.7073 32.1213 56.7052 32.0068 56.7052C31.9011 56.7052 31.7845 56.7118 31.6576 56.7246C31.5348 56.7416 31.4543 56.7524 31.4161 56.7566L31.4478 56.4615C31.5792 56.4445 31.6765 56.406 31.7402 56.3463C31.8035 56.282 31.8375 56.1859 31.8417 56.0578L31.9242 53.2563C31.9242 53.124 31.884 53.0299 31.8035 52.9744C31.7274 52.9188 31.5833 52.8803 31.3717 52.8588L31.3525 52.8269L31.4034 52.5897C31.4416 52.5939 31.5241 52.6002 31.6511 52.6089C31.778 52.6175 31.8778 52.6217 31.9497 52.6217C32.0387 52.6217 32.1255 52.6196 32.2101 52.6154C32.2947 52.6068 32.3498 52.6002 32.3752 52.596C32.6886 53.0876 33.002 53.5684 33.3153 54.0384C33.6332 54.5085 33.8977 54.8952 34.1096 55.1989C34.3212 55.5023 34.4546 55.6946 34.5097 55.7759H34.5413V53.1795ZM38.6449 55.9807C38.6958 56.139 38.7635 56.2501 38.8482 56.3143C38.9331 56.3782 39.0686 56.4188 39.2548 56.4361L39.2675 56.4615L39.2231 56.7246C39.1722 56.7246 39.079 56.7201 38.9435 56.7118C38.8124 56.7073 38.681 56.7052 38.5496 56.7052C38.3466 56.7052 38.1495 56.7139 37.9589 56.7309C37.7725 56.7479 37.6541 56.7608 37.6032 56.7694L37.5843 56.7246L37.6095 56.4744C37.8255 56.4573 37.9737 56.4317 38.0542 56.3976C38.1347 56.3633 38.175 56.3077 38.175 56.231C38.175 56.1453 38.156 56.0428 38.1178 55.9231L37.908 55.2243C37.8065 55.2201 37.5864 55.218 37.2475 55.218C37.0442 55.218 36.8134 55.235 36.5551 55.2694L36.3201 55.9359C36.282 56.0515 36.263 56.1348 36.263 56.1859C36.263 56.28 36.2926 56.3483 36.3518 56.391C36.411 56.4296 36.5086 56.449 36.6442 56.449H37.0061L37.0188 56.4744L36.9806 56.75C36.93 56.7458 36.8134 56.7375 36.6314 56.7246C36.4491 56.7118 36.2713 56.7052 36.0976 56.7052C35.9411 56.7052 35.7949 56.7073 35.6593 56.7118C35.5282 56.716 35.4412 56.7201 35.3989 56.7246L35.4498 56.4233C35.5685 56.4105 35.6638 56.3698 35.7357 56.3015C35.8076 56.2289 35.8774 56.105 35.9452 55.9297L37.1839 52.6536L37.5843 52.5446H37.6349C37.6604 52.6474 37.724 52.8845 37.8255 53.2563C37.9314 53.6281 38.0584 54.0683 38.2066 54.5768C38.359 55.0854 38.5052 55.5534 38.6449 55.9807ZM37.2283 54.9552C37.3766 54.9552 37.5736 54.9445 37.8193 54.9233L37.3174 53.2434H37.273L36.6693 54.9552H37.2283ZM40.4689 56.7052C40.2698 56.7052 40.0878 56.7139 39.9227 56.7309C39.7617 56.7479 39.6602 56.7608 39.6179 56.7694L39.6557 56.4744C39.8209 56.449 39.9333 56.3997 39.9925 56.3271C40.0561 56.2501 40.0878 56.1199 40.0878 55.9359L40.0943 53.2434C40.0943 53.1067 40.0771 53.015 40.0434 52.9678C40.0138 52.9209 39.9523 52.8973 39.859 52.8973C39.8167 52.8973 39.7744 52.8994 39.7321 52.9039C39.6898 52.9081 39.6602 52.9102 39.643 52.9102L39.6303 52.8845L39.675 52.6026C39.7256 52.6068 39.8209 52.6109 39.9608 52.6154C40.1005 52.6196 40.2423 52.6217 40.3864 52.6217C40.5006 52.6217 40.6299 52.6154 40.7737 52.6026C40.922 52.5853 41.0193 52.5724 41.0661 52.5641L41.0406 52.8525C40.901 52.8696 40.8036 52.8973 40.7486 52.9359C40.6977 52.9744 40.666 53.0192 40.6533 53.0705C40.6447 53.1216 40.6341 53.2479 40.6213 53.4486C40.5959 53.812 40.5769 54.2266 40.5642 54.6924C40.5515 55.1583 40.5453 55.5683 40.5453 55.9231C40.5453 56.0769 40.558 56.1883 40.5832 56.2567C40.6086 56.3206 40.6554 56.3633 40.7231 56.3848C40.795 56.406 40.9158 56.4167 41.085 56.4167C41.3434 56.4167 41.5319 56.3955 41.6505 56.3528C41.7734 56.3098 41.8645 56.2265 41.9237 56.1026C41.9873 55.9786 42.0444 55.78 42.095 55.5065L42.3747 55.4745L42.3936 55.5065C42.3809 55.5749 42.3534 55.7287 42.311 55.9682C42.2732 56.2074 42.2391 56.4594 42.2095 56.7246L42.1779 56.7628C42.0551 56.7545 41.8009 56.7416 41.4156 56.7246C41.0344 56.7118 40.7187 56.7052 40.4689 56.7052ZM44.7823 56.7052C44.6509 56.7052 44.5088 56.716 44.3564 56.7375C44.204 56.7587 44.1046 56.7736 44.0579 56.7823L44.096 56.4872C44.2908 56.449 44.4221 56.3934 44.4899 56.3206C44.5577 56.2438 44.5917 56.1154 44.5917 55.9359L44.5979 53.2434C44.5979 53.1067 44.581 53.015 44.547 52.9678C44.5174 52.9209 44.4562 52.8973 44.363 52.8973C44.3206 52.8973 44.278 52.8994 44.2357 52.9039C44.1934 52.9081 44.1638 52.9102 44.1469 52.9102L44.1342 52.8845L44.1786 52.6026C44.2295 52.6068 44.3248 52.6109 44.4645 52.6154C44.6041 52.6196 44.7441 52.6217 44.8838 52.6217C45.0279 52.6217 45.1738 52.6196 45.322 52.6154C45.4744 52.6068 45.5783 52.6002 45.6333 52.596C46.0358 52.596 46.3447 52.6814 46.5608 52.8525C46.7768 53.0192 46.8848 53.2584 46.8848 53.5705C46.8848 53.7843 46.8191 53.9766 46.6877 54.1474C46.5608 54.3182 46.3808 54.455 46.1479 54.5577C46.4572 54.6261 46.6984 54.7459 46.8721 54.9167C47.0458 55.0875 47.1325 55.2927 47.1325 55.5322C47.1325 55.7502 47.0626 55.9553 46.923 56.1477C46.7874 56.3355 46.6051 56.4872 46.3767 56.6028C46.1479 56.7139 45.9023 56.7694 45.6396 56.7694C45.5253 56.7694 45.3939 56.7587 45.246 56.7375C45.0045 56.716 44.8497 56.7052 44.7823 56.7052ZM45.0806 54.455C45.1442 54.4595 45.2501 54.4678 45.3984 54.4807C45.5508 54.4935 45.6757 54.5022 45.773 54.5064C45.773 54.5192 45.8281 54.498 45.9381 54.4425C46.0485 54.3824 46.1479 54.2928 46.2367 54.1731C46.3258 54.0492 46.3702 53.8846 46.3702 53.6795C46.3702 53.4059 46.279 53.2028 46.097 53.0705C45.9151 52.9379 45.6333 52.8717 45.2522 52.8717C45.2099 52.8717 45.1803 52.8824 45.1631 52.9039C45.1507 52.9209 45.1421 52.9594 45.138 53.0192C45.1125 53.4295 45.0933 53.9082 45.0806 54.455ZM45.0427 55.9936C45.0427 56.156 45.0977 56.2716 45.2078 56.34C45.3179 56.4084 45.5043 56.4424 45.7668 56.4424C46.0207 56.4424 46.2199 56.3719 46.364 56.231C46.5122 56.0855 46.5862 55.8911 46.5862 55.6474C46.5862 55.4166 46.5143 55.2288 46.3702 55.0833C46.2264 54.9337 46.0124 54.8334 45.7286 54.782L45.0678 54.7949L45.0427 55.9936ZM48.8328 56.0321C48.8328 56.156 48.8435 56.2438 48.8648 56.2949C48.8858 56.3421 48.9281 56.374 48.9917 56.391C49.0595 56.4084 49.1737 56.4167 49.3347 56.4167C49.6904 56.4167 49.9425 56.3997 50.0908 56.3654C50.2432 56.3313 50.3512 56.2629 50.4145 56.1605C50.4782 56.0578 50.527 55.8825 50.5607 55.6346L50.8404 55.6027L50.8593 55.6346C50.8466 55.6946 50.8211 55.8335 50.7833 56.0515C50.7451 56.265 50.7131 56.4851 50.688 56.7118L50.656 56.75C50.5122 56.7458 50.2177 56.7375 49.773 56.7246C49.3285 56.7118 48.9811 56.7052 48.7313 56.7052C48.5322 56.7052 48.3461 56.7139 48.1723 56.7309C48.0028 56.7479 47.8948 56.7608 47.8483 56.7694L47.8865 56.4744C48.0771 56.449 48.2061 56.3997 48.2738 56.3271C48.3461 56.2501 48.3819 56.1199 48.3819 55.9359L48.3884 53.2434C48.3884 53.1067 48.3712 53.015 48.3375 52.9678C48.3079 52.9209 48.2463 52.8973 48.1531 52.8973C48.1108 52.8973 48.0685 52.8994 48.0262 52.9039C47.9838 52.9081 47.9542 52.9102 47.9374 52.9102L47.9247 52.8845L47.969 52.6026C48.0241 52.6068 48.1342 52.6109 48.2993 52.6154C48.4689 52.6196 48.6529 52.6217 48.8521 52.6217C49.356 52.6217 49.7475 52.6175 50.0272 52.6089C50.3068 52.596 50.5501 52.5748 50.7578 52.5446L50.7767 52.5832C50.7726 52.6089 50.7599 52.671 50.7386 52.7692C50.7217 52.8633 50.7028 52.9893 50.6815 53.1473C50.6601 53.3056 50.6433 53.4722 50.6306 53.6475L50.3258 53.6732C50.3258 53.6517 50.3278 53.6152 50.332 53.5642C50.3364 53.5086 50.3385 53.4531 50.3385 53.3972C50.3385 53.2479 50.3192 53.1452 50.2814 53.0897C50.2432 53.0299 50.1606 52.9914 50.0334 52.9744C49.9064 52.9529 49.6842 52.9421 49.3664 52.9421C49.2184 52.9421 49.1166 52.9466 49.0616 52.955C49.0065 52.9636 48.9704 52.9848 48.9536 53.0192C48.9367 53.049 48.9261 53.1067 48.9219 53.1924L48.871 54.4359L49.5253 54.4425C49.6227 54.4425 49.7603 54.4338 49.9381 54.4168C50.1204 54.3953 50.2411 54.3803 50.3003 54.3717L50.3258 54.4039L50.2367 54.782C50.1775 54.7778 50.0609 54.7736 49.8875 54.7692C49.7179 54.765 49.538 54.7629 49.3474 54.7629C49.1909 54.7629 49.0278 54.7778 48.8583 54.8077C48.8414 55.4232 48.8328 55.8314 48.8328 56.0321ZM54.3648 55.9807C54.4157 56.139 54.4834 56.2501 54.5681 56.3143C54.6527 56.3782 54.7882 56.4188 54.9747 56.4361L54.9874 56.4615L54.9427 56.7246C54.8921 56.7246 54.7989 56.7201 54.6634 56.7118C54.532 56.7073 54.4006 56.7052 54.2695 56.7052C54.0662 56.7052 53.8691 56.7139 53.6785 56.7309C53.4924 56.7479 53.3737 56.7608 53.3228 56.7694L53.3039 56.7246L53.3294 56.4744C53.5454 56.4573 53.6933 56.4317 53.7738 56.3976C53.8543 56.3633 53.8946 56.3077 53.8946 56.231C53.8946 56.1453 53.8756 56.0428 53.8374 55.9231L53.6279 55.2243C53.5261 55.2201 53.306 55.218 52.9671 55.218C52.7639 55.218 52.533 55.235 52.2747 55.2694L52.0397 55.9359C52.0016 56.0515 51.9826 56.1348 51.9826 56.1859C51.9826 56.28 52.0122 56.3483 52.0714 56.391C52.1309 56.4296 52.2282 56.449 52.3638 56.449H52.7257L52.7384 56.4744L52.7005 56.75C52.6496 56.7458 52.533 56.7375 52.351 56.7246C52.169 56.7118 51.9909 56.7052 51.8175 56.7052C51.6607 56.7052 51.5145 56.7073 51.3792 56.7118C51.2478 56.716 51.1611 56.7201 51.1185 56.7246L51.1694 56.4233C51.2881 56.4105 51.3834 56.3698 51.4553 56.3015C51.5272 56.2289 51.5973 56.105 51.6651 55.9297L52.9035 52.6536L53.3039 52.5446H53.3548C53.38 52.6474 53.4436 52.8845 53.5454 53.2563C53.651 53.6281 53.7783 54.0683 53.9265 54.5768C54.0789 55.0854 54.2251 55.5534 54.3648 55.9807ZM52.9482 54.9552C53.0965 54.9552 53.2933 54.9445 53.5389 54.9233L53.037 53.2434H52.9926L52.3892 54.9552H52.9482ZM56.0122 55.1027C56.0122 55.5256 56.1033 55.8505 56.2853 56.0769C56.4676 56.3035 56.7301 56.4167 57.073 56.4167C57.4205 56.4167 57.685 56.325 57.8673 56.1411C58.0493 55.953 58.1404 55.6839 58.1404 55.3333C58.136 54.9914 58.1298 54.6025 58.1212 54.1665C58.1129 53.7263 58.1064 53.4187 58.1023 53.2434C58.0937 53.0938 58.0747 53.0001 58.0452 52.9615C58.0197 52.9188 57.9602 52.8973 57.8673 52.8973C57.8164 52.8973 57.7634 52.8994 57.7084 52.9039C57.6534 52.9081 57.6152 52.9102 57.5942 52.9102L57.5814 52.8845L57.6258 52.6026C57.6767 52.6068 57.772 52.6109 57.9117 52.6154C58.0555 52.6196 58.1996 52.6217 58.3437 52.6217C58.458 52.6217 58.5787 52.6154 58.7056 52.6026C58.837 52.5853 58.9217 52.5724 58.9598 52.5641L58.9344 52.8525C58.8074 52.8696 58.7122 52.8911 58.6485 52.9164C58.5893 52.9379 58.5491 52.9723 58.5278 53.0192C58.5068 53.0619 58.4961 53.1282 58.4961 53.2178V55.3718C58.4961 55.8207 58.3585 56.1689 58.083 56.4167C57.8078 56.6604 57.4205 56.7823 56.9207 56.7823C56.4759 56.7823 56.1329 56.6604 55.8914 56.4167C55.6503 56.1689 55.5295 55.8186 55.5295 55.3655V53.2434C55.5295 53.1067 55.5127 53.015 55.4786 52.9678C55.449 52.9209 55.3875 52.8973 55.2946 52.8973C55.2522 52.8973 55.2096 52.8994 55.1673 52.9039C55.125 52.9081 55.0954 52.9102 55.0785 52.9102L55.0658 52.8845L55.1102 52.6026C55.1611 52.6068 55.2564 52.6109 55.3961 52.6154C55.5402 52.6196 55.684 52.6217 55.8281 52.6217C55.9423 52.6217 56.0717 52.6154 56.2155 52.6026C56.3596 52.5853 56.4528 52.5724 56.4951 52.5641L56.4697 52.8525C56.3128 52.8737 56.2072 52.9102 56.1521 52.9615C56.1012 53.0084 56.0716 53.0938 56.0631 53.2178L56.0122 55.1027ZM60.6475 52.8717C60.2832 52.8887 60.0376 52.9123 59.9106 52.9421C59.7834 52.9723 59.6967 53.0341 59.6499 53.1282C59.6035 53.2222 59.5611 53.4059 59.523 53.6795L59.2244 53.7051C59.233 53.6409 59.2478 53.4979 59.2688 53.2757C59.2942 53.049 59.3114 52.8227 59.3197 52.596L59.3768 52.5446L59.9041 52.6154H61.8735L62.4132 52.5446L62.4706 52.596C62.4789 52.8227 62.4937 53.0449 62.515 53.2629C62.5405 53.4809 62.5573 53.6197 62.5659 53.6795L62.2673 53.7051C62.2206 53.4229 62.1741 53.2327 62.1274 53.1344C62.0809 53.0362 61.9983 52.9723 61.8797 52.9421C61.7613 52.9123 61.5326 52.8887 61.1937 52.8717C61.1683 53.1282 61.1449 53.5812 61.1239 54.2307C61.1026 54.8803 61.0919 55.4659 61.0919 55.9873C61.0919 56.1453 61.1195 56.2588 61.1745 56.3271C61.2295 56.391 61.3228 56.4233 61.4542 56.4233C61.5474 56.4233 61.6234 56.4212 61.6829 56.4167C61.7462 56.4126 61.7865 56.4084 61.8036 56.4039L61.8226 56.4296L61.7655 56.7246C61.6977 56.7246 61.5708 56.7201 61.3843 56.7118C61.1979 56.7073 61.0138 56.7052 60.8315 56.7052C60.6537 56.7052 60.48 56.7073 60.3107 56.7118C60.1414 56.7201 60.0249 56.7267 59.9612 56.7309L60.0121 56.4553C60.224 56.4382 60.3699 56.4125 60.4504 56.3782C60.5309 56.34 60.5839 56.2737 60.6093 56.1796C60.6348 56.0814 60.6475 55.9102 60.6475 55.6669V52.8717ZM63.6706 53.0705C63.6706 53.1261 63.7233 53.2778 63.8292 53.5257C63.9352 53.7735 64.0432 54.0172 64.1532 54.2564C64.2675 54.4956 64.3438 54.6518 64.382 54.7244H64.4137L65.1378 53.3653C65.2055 53.2414 65.2396 53.1344 65.2396 53.0449C65.2396 52.9338 65.1061 52.8696 64.8392 52.8525L64.8268 52.8269L64.8646 52.5769C64.9155 52.5811 65.0215 52.5897 65.1825 52.6026C65.3431 52.6154 65.4725 52.6217 65.5698 52.6217C65.6716 52.6217 65.7838 52.6196 65.9066 52.6154C66.0335 52.6068 66.1161 52.6002 66.1543 52.596L66.1797 52.6408L66.1415 52.8782C66.006 52.9039 65.9001 52.94 65.824 52.9872C65.7477 53.0299 65.6799 53.0938 65.6207 53.1795C65.5657 53.2608 65.4831 53.3996 65.373 53.5961C65.3476 53.6475 65.3263 53.6857 65.3094 53.7114L64.6741 54.8396C64.619 54.9382 64.5832 55.0493 64.5661 55.1732C64.5533 55.2972 64.543 55.5214 64.5344 55.8463V55.9873C64.5302 56.1539 64.5471 56.2692 64.5853 56.3334C64.6276 56.3934 64.7037 56.4233 64.814 56.4233C64.8818 56.4233 64.9451 56.4212 65.0046 56.4167C65.0638 56.4126 65.104 56.4084 65.125 56.4039L65.1378 56.4296L65.0807 56.7246C65.0215 56.7201 64.9114 56.716 64.7504 56.7118C64.5936 56.7073 64.435 56.7052 64.274 56.7052C64.1426 56.7052 64.0008 56.716 63.8484 56.7375C63.6958 56.7587 63.5963 56.7736 63.5499 56.7823L63.588 56.4872C63.7404 56.4573 63.8505 56.4188 63.9183 56.3719C63.9861 56.325 64.0304 56.2608 64.0517 56.1796C64.0728 56.0984 64.0834 55.9703 64.0834 55.795V55.5128C64.0834 55.3805 64.0707 55.2649 64.0452 55.1666C64.0198 55.0642 63.9713 54.9382 63.8991 54.7886L63.3273 53.6152C63.2172 53.3889 63.1391 53.2372 63.0924 53.1601C63.0459 53.0789 62.9802 53.015 62.8956 52.9678C62.8106 52.9209 62.6878 52.8911 62.5272 52.8782L62.5144 52.8525L62.5523 52.6026C62.5991 52.6068 62.6878 52.6109 62.8192 52.6154C62.9506 52.6196 63.0944 52.6217 63.2513 52.6217C63.3995 52.6217 63.5709 52.6154 63.7659 52.6026C63.9647 52.5853 64.0941 52.5748 64.1532 52.5703L64.1722 52.6154L64.1532 52.8397C63.9627 52.8567 63.8337 52.8824 63.7659 52.9164C63.7023 52.9466 63.6706 52.9977 63.6706 53.0705ZM69.4908 56.7823C69.1096 56.7823 68.7749 56.701 68.487 56.5386C68.1991 56.3761 67.9768 56.1477 67.82 55.8526C67.6676 55.5534 67.5913 55.2031 67.5913 54.8014C67.5913 54.3741 67.6865 53.9894 67.8771 53.6475C68.0677 53.3011 68.3305 53.032 68.6649 52.8397C69.0037 52.6432 69.3848 52.5446 69.8083 52.5446C69.9651 52.5446 70.1237 52.5575 70.2847 52.5832C70.4498 52.6047 70.5877 52.628 70.6978 52.6536C70.8121 52.6751 70.884 52.6901 70.9136 52.6987L70.939 52.737C70.9307 52.7626 70.9159 52.8248 70.8946 52.923C70.8778 53.0213 70.8564 53.1494 70.831 53.3077C70.81 53.4656 70.7931 53.6326 70.7804 53.8076L70.4753 53.8333C70.4797 53.812 70.4839 53.7735 70.488 53.718C70.4925 53.658 70.4945 53.592 70.4945 53.5191C70.4945 53.1216 70.1832 52.923 69.5606 52.923C69.2813 52.923 69.0356 52.9914 68.8238 53.1282C68.6119 53.2649 68.4488 53.4594 68.3346 53.7114C68.2204 53.9593 68.163 54.2522 68.163 54.5897C68.163 54.9615 68.2225 55.2885 68.3411 55.5707C68.4639 55.8526 68.6353 56.0727 68.8554 56.231C69.0759 56.3848 69.3298 56.4615 69.6177 56.4615C69.9056 56.4615 70.1365 56.3806 70.3102 56.2181C70.488 56.0515 70.6173 55.795 70.6978 55.4489L71.0026 55.4232C70.9899 55.4874 70.9624 55.6304 70.9201 55.8526C70.8778 56.0706 70.8481 56.2758 70.831 56.4681L70.7931 56.5257C70.7931 56.5299 70.7274 56.5556 70.596 56.6028C70.4691 56.6455 70.3081 56.6861 70.1134 56.7246C69.9228 56.7628 69.7151 56.7823 69.4908 56.7823ZM72.6855 56.0321C72.6855 56.156 72.6959 56.2438 72.7172 56.2949C72.7385 56.3421 72.7808 56.374 72.8441 56.391C72.9119 56.4084 73.0264 56.4167 73.1871 56.4167C73.5431 56.4167 73.7949 56.3997 73.9432 56.3654C74.0956 56.3313 74.2036 56.2629 74.2672 56.1605C74.3306 56.0578 74.3794 55.8825 74.4134 55.6346L74.6928 55.6027L74.7117 55.6346C74.6993 55.6946 74.6738 55.8335 74.6356 56.0515C74.5975 56.265 74.5658 56.4851 74.5404 56.7118L74.5087 56.75C74.3646 56.7458 74.0701 56.7375 73.6257 56.7246C73.1809 56.7118 72.8338 56.7052 72.5837 56.7052C72.3849 56.7052 72.1984 56.7139 72.0247 56.7309C71.8555 56.7479 71.7475 56.7608 71.7007 56.7694L71.7389 56.4744C71.9294 56.449 72.0588 56.3997 72.1265 56.3271C72.1984 56.2501 72.2346 56.1199 72.2346 55.9359L72.2408 53.2434C72.2408 53.1067 72.2239 53.015 72.1899 52.9678C72.1603 52.9209 72.099 52.8973 72.0058 52.8973C71.9635 52.8973 71.9212 52.8994 71.8786 52.9039C71.8362 52.9081 71.8066 52.9102 71.7898 52.9102L71.777 52.8845L71.8214 52.6026C71.8765 52.6068 71.9866 52.6109 72.1517 52.6154C72.3212 52.6196 72.5053 52.6217 72.7045 52.6217C73.2084 52.6217 73.6002 52.6175 73.8796 52.6089C74.1592 52.596 74.4027 52.5748 74.6102 52.5446L74.6291 52.5832C74.625 52.6089 74.6123 52.671 74.5913 52.7692C74.5741 52.8633 74.5552 52.9893 74.5338 53.1473C74.5128 53.3056 74.496 53.4722 74.4832 53.6475L74.1782 53.6732C74.1782 53.6517 74.1802 53.6152 74.1847 53.5642C74.1888 53.5086 74.1909 53.4531 74.1909 53.3972C74.1909 53.2479 74.1719 53.1452 74.1338 53.0897C74.0956 53.0299 74.013 52.9914 73.8861 52.9744C73.7588 52.9529 73.5366 52.9421 73.2191 52.9421C73.0708 52.9421 72.969 52.9466 72.914 52.955C72.8589 52.9636 72.8231 52.9848 72.8063 53.0192C72.7891 53.049 72.7784 53.1067 72.7743 53.1924L72.7234 54.4359L73.3777 54.4425C73.4753 54.4425 73.6129 54.4338 73.7908 54.4168C73.9728 54.3953 74.0935 54.3803 74.1527 54.3717L74.1782 54.4039L74.0894 54.782C74.0299 54.7778 73.9136 54.7736 73.7399 54.7692C73.5706 54.765 73.3904 54.7629 73.1998 54.7629C73.0433 54.7629 72.8802 54.7778 72.711 54.8077C72.6938 55.4232 72.6855 55.8314 72.6855 56.0321ZM78.6176 53.1795C78.6176 52.9956 78.5474 52.9039 78.4077 52.9039L78.1663 52.9102L78.1535 52.8845L78.211 52.596C78.2533 52.6002 78.3338 52.6068 78.4521 52.6154C78.5708 52.6196 78.6915 52.6217 78.8143 52.6217C78.9244 52.6217 79.0452 52.6154 79.1765 52.6026C79.3121 52.5853 79.4009 52.5748 79.4432 52.5703L79.4115 52.8654C79.2633 52.8866 79.1552 52.9293 79.0875 52.9935C79.0197 53.0532 78.9836 53.1452 78.9795 53.2691L78.8907 56.8718L78.7063 56.9617C78.3379 56.3848 77.9781 55.8356 77.6265 55.3142C77.2791 54.7886 76.9932 54.3654 76.7689 54.045C76.5443 53.7201 76.4026 53.5149 76.3434 53.4295H76.3114L76.2798 56.1668C76.2798 56.2608 76.2946 56.3271 76.3242 56.3654C76.3538 56.4039 76.4047 56.4233 76.4766 56.4233L76.8006 56.4167L76.8133 56.4424L76.7562 56.7309C76.7095 56.7267 76.6142 56.7201 76.4704 56.7118C76.3262 56.7073 76.1972 56.7052 76.0827 56.7052C75.9771 56.7052 75.8605 56.7118 75.7335 56.7246C75.6107 56.7416 75.5302 56.7524 75.492 56.7566L75.5237 56.4615C75.6551 56.4445 75.7524 56.406 75.8161 56.3463C75.8794 56.282 75.9134 56.1859 75.9176 56.0578L76.0001 53.2563C76.0001 53.124 75.9599 53.0299 75.8794 52.9744C75.8034 52.9188 75.6592 52.8803 75.4477 52.8588L75.4284 52.8269L75.4793 52.5897C75.5175 52.5939 75.6001 52.6002 75.727 52.6089C75.8542 52.6175 75.9537 52.6217 76.0256 52.6217C76.1147 52.6217 76.2014 52.6196 76.286 52.6154C76.3709 52.6068 76.426 52.6002 76.4511 52.596C76.7645 53.0876 77.0779 53.5684 77.3913 54.0384C77.7091 54.5085 77.9736 54.8952 78.1855 55.1989C78.3971 55.5023 78.5306 55.6946 78.5856 55.7759H78.6176V53.1795ZM81.1314 52.8717C80.7671 52.8887 80.5215 52.9123 80.3946 52.9421C80.2673 52.9723 80.1806 53.0341 80.1341 53.1282C80.0874 53.2222 80.0451 53.4059 80.0069 53.6795L79.7083 53.7051C79.7169 53.6409 79.7317 53.4979 79.753 53.2757C79.7785 53.049 79.7953 52.8227 79.8036 52.596L79.861 52.5446L80.3881 52.6154H82.3574L82.8975 52.5446L82.9546 52.596C82.9628 52.8227 82.978 53.0449 82.999 53.2629C83.0244 53.4809 83.0413 53.6197 83.0499 53.6795L82.7513 53.7051C82.7045 53.4229 82.6581 53.2327 82.6116 53.1344C82.5648 53.0362 82.4823 52.9723 82.3636 52.9421C82.2452 52.9123 82.0165 52.8887 81.6777 52.8717C81.6522 53.1282 81.6288 53.5812 81.6078 54.2307C81.5865 54.8803 81.5762 55.4659 81.5762 55.9873C81.5762 56.1453 81.6037 56.2588 81.6587 56.3271C81.7138 56.391 81.807 56.4233 81.9381 56.4233C82.0313 56.4233 82.1076 56.4212 82.1668 56.4167C82.2305 56.4126 82.2707 56.4084 82.2876 56.4039L82.3065 56.4296L82.2494 56.7246C82.1816 56.7246 82.0547 56.7201 81.8682 56.7118C81.6818 56.7073 81.4977 56.7052 81.3155 56.7052C81.1376 56.7052 80.9642 56.7073 80.7946 56.7118C80.6254 56.7201 80.5088 56.7267 80.4454 56.7309L80.4961 56.4553C80.7079 56.4382 80.8541 56.4125 80.9343 56.3782C81.0148 56.34 81.0678 56.2737 81.0932 56.1796C81.1187 56.0814 81.1314 55.9102 81.1314 55.6669V52.8717ZM84.4721 56.0321C84.4721 56.156 84.4827 56.2438 84.5037 56.2949C84.525 56.3421 84.5673 56.374 84.631 56.391C84.6987 56.4084 84.813 56.4167 84.9739 56.4167C85.3296 56.4167 85.5818 56.3997 85.73 56.3654C85.8824 56.3313 85.9904 56.2629 86.0537 56.1605C86.1174 56.0578 86.1662 55.8825 86.1999 55.6346L86.4796 55.6027L86.4985 55.6346C86.4858 55.6946 86.4603 55.8335 86.4222 56.0515C86.3843 56.265 86.3523 56.4851 86.3269 56.7118L86.2952 56.75C86.1511 56.7458 85.857 56.7375 85.4122 56.7246C84.9677 56.7118 84.6203 56.7052 84.3705 56.7052C84.1714 56.7052 83.985 56.7139 83.8116 56.7309C83.642 56.7479 83.534 56.7608 83.4875 56.7694L83.5257 56.4744C83.7163 56.449 83.8453 56.3997 83.9131 56.3271C83.985 56.2501 84.0211 56.1199 84.0211 55.9359L84.0273 53.2434C84.0273 53.1067 84.0104 53.015 83.9767 52.9678C83.9471 52.9209 83.8855 52.8973 83.7923 52.8973C83.75 52.8973 83.7077 52.8994 83.6654 52.9039C83.6231 52.9081 83.5935 52.9102 83.5763 52.9102L83.5636 52.8845L83.6083 52.6026C83.6633 52.6068 83.7734 52.6109 83.9385 52.6154C84.1078 52.6196 84.2921 52.6217 84.4913 52.6217C84.9952 52.6217 85.3867 52.6175 85.6664 52.6089C85.9457 52.596 86.1893 52.5748 86.397 52.5446L86.416 52.5832C86.4118 52.6089 86.3991 52.671 86.3778 52.7692C86.3609 52.8633 86.3417 52.9893 86.3207 53.1473C86.2994 53.3056 86.2825 53.4722 86.2698 53.6475L85.965 53.6732C85.965 53.6517 85.967 53.6152 85.9712 53.5642C85.9756 53.5086 85.9777 53.4531 85.9777 53.3972C85.9777 53.2479 85.9585 53.1452 85.9206 53.0897C85.8824 53.0299 85.7999 52.9914 85.6726 52.9744C85.5457 52.9529 85.3234 52.9421 85.0056 52.9421C84.8573 52.9421 84.7558 52.9466 84.7008 52.955C84.6458 52.9636 84.6096 52.9848 84.5928 53.0192C84.5759 53.049 84.5653 53.1067 84.5611 53.1924L84.5102 54.4359L85.1645 54.4425C85.2619 54.4425 85.3995 54.4338 85.5773 54.4168C85.7596 54.3953 85.8803 54.3803 85.9395 54.3717L85.965 54.4039L85.8759 54.782C85.8167 54.7778 85.7001 54.7736 85.5267 54.7692C85.3572 54.765 85.1772 54.7629 84.9866 54.7629C84.8298 54.7629 84.6668 54.7778 84.4975 54.8077C84.4806 55.4232 84.4721 55.8314 84.4721 56.0321ZM88.2252 55.9102C88.2252 56.0727 88.2359 56.1904 88.2569 56.2629C88.2782 56.3313 88.3184 56.3782 88.3776 56.4039C88.4371 56.4254 88.5386 56.4361 88.6827 56.4361L88.6954 56.4615L88.638 56.7309C88.5874 56.7267 88.4856 56.7222 88.3332 56.718C88.1808 56.7139 88.0219 56.7118 87.8568 56.7118C87.7085 56.7118 87.5771 56.7139 87.4629 56.718C87.3487 56.7222 87.2723 56.7267 87.2342 56.7309L87.2913 56.4424C87.4268 56.4254 87.5286 56.4018 87.5964 56.3719C87.6641 56.3421 87.7106 56.2949 87.7361 56.231C87.7615 56.1626 87.7742 56.0643 87.7742 55.9359L87.7804 53.2434C87.7804 53.1067 87.7636 53.015 87.7298 52.9678C87.7 52.9209 87.6387 52.8973 87.5455 52.8973C87.5032 52.8973 87.4608 52.8994 87.4185 52.9039C87.3762 52.9081 87.3463 52.9102 87.3295 52.9102L87.3167 52.8845L87.3614 52.6026C87.412 52.6068 87.5073 52.6109 87.6473 52.6154C87.7869 52.6196 87.9266 52.6217 88.0663 52.6217C88.2104 52.6217 88.3607 52.6196 88.5173 52.6154C88.6783 52.6068 88.7883 52.6002 88.8478 52.596C89.2417 52.596 89.553 52.6859 89.7815 52.8654C90.0102 53.0449 90.1247 53.2906 90.1247 53.6024C90.1247 53.8589 90.0419 54.094 89.8767 54.3078C89.7158 54.5213 89.4873 54.6966 89.1908 54.8334L89.8895 55.9488C90.0123 56.1539 90.131 56.2973 90.2452 56.3782C90.3638 56.4553 90.5079 56.4938 90.6772 56.4938L90.7027 56.5195L90.6645 56.7375L90.1247 56.8079C90.0188 56.8079 89.9043 56.7545 89.7815 56.6476C89.6631 56.5365 89.553 56.3869 89.4512 56.1987L88.7715 54.9552H88.2441L88.2252 55.9102ZM88.9112 54.6602C88.9112 54.673 88.9748 54.6452 89.1017 54.5768C89.229 54.5085 89.3432 54.4039 89.445 54.2627C89.5465 54.1217 89.5974 53.9402 89.5974 53.718C89.5974 53.1539 89.2097 52.8717 88.4347 52.8717C88.3924 52.8717 88.3628 52.8824 88.3459 52.9039C88.3332 52.9209 88.3246 52.9594 88.3205 53.0192C88.2823 53.6732 88.2613 54.1988 88.2569 54.5963L88.9112 54.6602Z" fill="#0A0A0A"/>
<path d="M0.820374 48.8614V47.3458H4.50692V19.6959H1.34377V18.2951H26.6034L26.6945 26.3328H25.1698C24.1381 23.7301 23.0914 21.9771 22.0294 21.0738C20.9674 20.1552 19.42 19.6959 17.3871 19.6959H12.1531V32.2577C12.2745 32.2732 12.411 32.2884 12.5627 32.3037C12.7296 32.3037 12.9496 32.3037 13.2226 32.3037C14.8763 32.3037 16.1279 31.8674 16.9775 30.9947C17.827 30.1066 18.3808 28.6753 18.6387 26.7004H20.1633V39.7444H18.6387C18.4718 37.6316 17.956 36.116 17.0912 35.1974C16.2265 34.2788 14.8763 33.8195 13.0406 33.8195H12.1531V47.3458H17.2278C19.731 47.3458 21.688 46.6799 23.0989 45.348C24.5098 44.0158 25.6173 41.7883 26.4214 38.6651H27.855L27.5364 48.8614H0.820374ZM43.3308 47.3458H47.3814C49.4904 47.3458 50.8632 46.9325 51.5003 46.1056C52.1377 45.2638 52.4561 43.3423 52.4561 40.3414C52.4561 37.5399 52.0771 35.6797 51.3183 34.7611C50.5599 33.8425 49.0353 33.3832 46.7443 33.3832H43.3308V47.3458ZM43.3308 32.074H46.2211C48.436 32.074 49.8923 31.6915 50.5901 30.9258C51.2881 30.1604 51.637 28.4761 51.637 25.8735C51.637 23.0412 51.326 21.3035 50.704 20.6604C50.097 20.0174 48.5118 19.6959 45.9479 19.6959H43.3308V32.074ZM32.5214 47.3458H35.7757V19.6959H32.5214V18.2951H49.4297C52.5851 18.2951 55.0732 18.9534 56.8938 20.27C58.7293 21.5714 59.6473 23.3397 59.6473 25.575C59.6473 27.4276 58.919 28.9357 57.4625 30.0991C56.0063 31.2474 53.8443 32.028 50.9771 32.4416V32.8319C54.2538 33.1076 56.7192 33.8882 58.3728 35.1744C60.0264 36.4451 60.8535 38.1981 60.8535 40.4334C60.8535 43.0207 59.7988 45.0723 57.6901 46.5879C55.5814 48.1038 52.7216 48.8614 49.111 48.8614H32.5214V47.3458ZM91.3 39.6984V48.8614H89.7982L87.7501 47.1622C86.855 47.9736 85.7929 48.5861 84.564 48.9994C83.3504 49.4127 81.9927 49.6193 80.4906 49.6193C78.4123 49.6193 76.5084 49.2138 74.7787 48.4021C73.0494 47.5907 71.4414 46.3508 69.9543 44.682C68.4827 43.0589 67.3831 41.329 66.6548 39.4918C65.9266 37.6393 65.5626 35.6642 65.5626 33.5669C65.5626 31.5 65.9266 29.5556 66.6548 27.7337C67.3982 25.8965 68.5132 24.1588 69.9999 22.5206C71.4866 20.8824 73.11 19.6576 74.8699 18.8462C76.6297 18.0348 78.5488 17.629 80.6273 17.629C81.9016 17.629 83.1077 17.8128 84.2455 18.1802C85.3834 18.5477 86.4756 19.0988 87.5223 19.8337L89.1608 18.2491H90.6857L90.8677 26.7004H89.2519C88.2505 23.9904 87.0672 22.0383 85.7018 20.8442C84.3364 19.65 82.6147 19.0529 80.5362 19.0529C78.1999 19.0529 76.6146 19.826 75.7801 21.3724C74.9456 22.9187 74.5284 26.7998 74.5284 33.0156C74.5284 36.2919 74.5663 38.7416 74.6423 40.3644C74.7181 41.9874 74.8471 43.1587 75.0291 43.8781C75.4085 45.4092 76.0305 46.5114 76.8952 47.1852C77.7598 47.8586 78.9737 48.1954 80.5362 48.1954C82.6754 48.1954 84.5867 47.4071 86.2708 45.8303C87.97 44.238 89.0699 42.1941 89.5706 39.6984H91.3Z" fill="#0A0A0A"/>
<path d="M18.0979 15.926C18.1907 15.7526 18.3498 15.4324 18.5751 14.9654C18.8137 14.4984 19.0921 13.938 19.4102 13.2843C19.7283 12.6171 20.0597 11.8966 20.4043 11.1228C20.7622 10.3355 21.0936 9.53499 21.3985 8.72111C21.7166 7.89388 21.9883 7.09332 22.2136 6.31946C22.3197 5.95922 22.3926 5.62565 22.4323 5.31876C22.4854 4.99854 22.5119 4.70503 22.5119 4.43815C22.5119 3.81107 22.3926 3.33073 22.154 2.99719C21.9154 2.66362 21.6039 2.49684 21.2195 2.49684C20.7821 2.49684 20.2784 2.73032 19.7084 3.19731C19.1517 3.65095 18.5884 4.37146 18.0184 5.35881C17.6605 5.97254 17.3623 6.61967 17.1237 7.30013C16.8983 7.98058 16.7658 8.64106 16.726 9.2815C16.7128 9.40157 16.6796 9.48164 16.6266 9.52167C16.5868 9.56169 16.5537 9.53499 16.5272 9.44159C16.4609 9.24147 16.4278 9.0013 16.4278 8.72111C16.4278 8.32084 16.4742 7.87387 16.567 7.38017C16.673 6.88651 16.8188 6.39951 17.0044 5.91917C17.1899 5.42551 17.402 4.99854 17.6406 4.6383C17.9853 4.13129 18.4094 3.67765 18.9131 3.27735C19.4168 2.87709 19.947 2.56353 20.5037 2.33671C21.0604 2.10989 21.5906 1.99648 22.0943 1.99648C22.7173 1.99648 23.2343 2.19663 23.6452 2.5969C24.0561 2.99719 24.2615 3.6643 24.2615 4.59828C24.2615 5.17202 24.1953 5.83246 24.0627 6.57964C23.9302 7.31348 23.7048 8.15406 23.3867 9.10136C23.9832 8.20743 24.6658 7.3535 25.4346 6.53962C26.2167 5.72571 26.9722 5.05192 27.7012 4.51823C28.2447 4.11794 28.7152 3.83108 29.1129 3.65764C29.5105 3.47084 29.8487 3.37744 30.127 3.37744C30.5512 3.37744 30.8492 3.56424 31.0218 3.93783C31.2073 4.29807 31.3 4.77172 31.3 5.35881C31.3 5.93252 31.2339 6.58631 31.1012 7.32014C30.9686 8.04065 30.7964 8.77448 30.5843 9.52167C30.3722 10.2688 30.1468 10.9693 29.9081 11.6231C30.4516 10.7559 31.048 9.84854 31.6976 8.90124C32.3605 7.94056 33.0432 7.00658 33.7457 6.0993C34.4614 5.19203 35.1772 4.37812 35.893 3.65764C36.622 2.9238 37.3245 2.35006 38.0004 1.93645C38.3318 1.7363 38.7096 1.56286 39.1338 1.41609C39.5713 1.25599 39.9689 1.17591 40.3267 1.17591C40.7243 1.17591 41.0093 1.28932 41.1816 1.51614C41.2082 1.56952 41.2214 1.59622 41.2214 1.59622C41.2214 1.6496 41.1884 1.67627 41.1222 1.67627C41.0557 1.67627 40.9896 1.67627 40.9231 1.67627C40.3666 1.63624 39.7435 1.81638 39.0544 2.21664C38.3649 2.60359 37.6426 3.15062 36.887 3.85775C36.1446 4.56491 35.3958 5.35881 34.6402 6.23942C33.8981 7.12002 33.169 8.03396 32.4533 8.98129C31.7508 9.91527 31.0944 10.8225 30.4847 11.7032C29.8883 12.5704 29.3648 13.3443 28.9141 14.0247C28.8875 14.0781 28.7418 14.1649 28.4766 14.2849C28.2249 14.405 27.9398 14.5251 27.6217 14.6452C27.3036 14.7653 27.0319 14.852 26.8065 14.9054C26.5812 14.9721 26.4818 14.9787 26.5083 14.9254C26.6011 14.6985 26.7601 14.3316 26.9855 13.8246C27.2108 13.3043 27.4693 12.6772 27.7609 11.9433C28.0657 11.2095 28.364 10.4023 28.6556 9.52167C28.9471 8.64106 29.2124 7.72043 29.4508 6.75975C29.5701 6.23942 29.6298 5.81911 29.6298 5.49889C29.6298 4.91183 29.4378 4.61829 29.0532 4.61829C28.735 4.61829 28.3176 4.81174 27.8007 5.19869C27.2837 5.57228 26.7204 6.07929 26.1106 6.71973C25.5009 7.36016 24.8779 8.08067 24.2417 8.88123C23.6187 9.68176 23.0288 10.5023 22.4721 11.3429C22.1937 11.9967 21.9022 12.6371 21.5973 13.2642C21.2924 13.8913 20.9743 14.4784 20.6429 15.0254C20.6031 15.0788 20.4441 15.1655 20.1657 15.2856C19.9006 15.4057 19.6024 15.5258 19.271 15.6459C18.9396 15.7659 18.6546 15.8527 18.416 15.906C18.1775 15.9728 18.0714 15.9794 18.0979 15.926ZM33.5557 14.6252C33.1448 14.6252 32.8267 14.4984 32.6013 14.2449C32.3762 13.9781 32.2633 13.6378 32.2633 13.2242C32.2633 12.8373 32.3629 12.4103 32.5617 11.9433C32.7738 11.4763 33.1049 11.0027 33.5557 10.5223C34.0198 10.0153 34.5961 9.60837 35.2856 9.30151C35.9748 8.98129 36.6309 8.82117 37.2539 8.82117C37.7575 8.82117 38.1885 8.93458 38.5463 9.1614C38.9043 9.37489 39.1427 9.6484 39.262 9.98197C39.408 9.98197 39.587 10.022 39.7988 10.1021C40.0242 10.1821 40.137 10.3289 40.137 10.5424C40.137 10.6891 40.0641 10.8559 39.9181 11.0427C39.8254 11.1761 39.6597 11.3763 39.4213 11.6431C39.1959 11.91 38.9838 12.1968 38.785 12.5037C38.6257 12.7439 38.4999 12.9707 38.4071 13.1842C38.3144 13.3843 38.268 13.5578 38.268 13.7045C38.268 13.9047 38.3673 14.0047 38.5661 14.0047C38.7915 14.0047 39.1294 13.878 39.5802 13.6245C40.0706 13.3443 40.5411 13.0241 40.9919 12.6638C41.4424 12.3036 41.7939 12.0167 42.0456 11.8032C42.1118 11.7499 42.1585 11.7232 42.1848 11.7232C42.2379 11.7232 42.2642 11.7565 42.2642 11.8233C42.2642 11.9033 42.2311 11.9767 42.165 12.0434C42.0456 12.1501 41.8137 12.3503 41.469 12.6438C41.1246 12.9373 40.7266 13.2442 40.2762 13.5644C39.8387 13.8847 39.408 14.1448 38.9838 14.345C38.7717 14.4384 38.5729 14.5118 38.3873 14.5651C38.2148 14.6051 38.0559 14.6252 37.91 14.6252C37.5522 14.6252 37.2805 14.5251 37.095 14.325C36.9094 14.1115 36.8164 13.838 36.8164 13.5044C36.8164 13.371 36.8365 13.2309 36.8761 13.0841C36.9159 12.9373 36.9623 12.7906 37.0152 12.6438L37.1546 12.3036C36.8099 12.7305 36.4652 13.0908 36.1207 13.3843C35.776 13.6645 35.4312 13.9113 35.0868 14.1248C34.7952 14.2983 34.5167 14.425 34.2517 14.5051C33.9997 14.5851 33.7678 14.6252 33.5557 14.6252ZM34.1722 14.1048C34.4106 14.1048 34.7554 13.9647 35.2061 13.6845C35.6566 13.391 36.1804 12.944 36.7768 12.3436C36.8563 12.2635 37.0022 12.1235 37.2143 11.9233C37.4394 11.7098 37.6781 11.4763 37.9301 11.2228C38.1817 10.956 38.3938 10.6958 38.5661 10.4423C38.7519 10.1755 38.8446 9.95529 38.8446 9.78185C38.8446 9.52833 38.6257 9.40156 38.1885 9.40156C37.8039 9.40156 37.3401 9.555 36.7966 9.86189C36.2663 10.1554 35.7562 10.5957 35.2655 11.1828C34.7619 11.7832 34.3908 12.3036 34.1521 12.7439C33.927 13.1708 33.8142 13.4977 33.8142 13.7245C33.8142 13.9781 33.9335 14.1048 34.1722 14.1048ZM44.9004 14.6252C44.3306 14.6252 43.9462 14.5184 43.7474 14.3049C43.5486 14.0781 43.4491 13.8313 43.4491 13.5644C43.4491 13.2175 43.5817 12.8506 43.8467 12.4637C44.0059 12.2369 44.1846 11.9833 44.3834 11.7032C44.5825 11.4096 44.7681 11.1361 44.9403 10.8826C45.1125 10.6291 45.2318 10.449 45.2983 10.3422C45.3911 10.2088 45.4439 10.1221 45.4572 10.0821C45.4838 10.0287 45.4971 9.9753 45.4971 9.92193C45.4971 9.84188 45.4439 9.7685 45.3379 9.70177C45.2451 9.62172 45.0862 9.5817 44.8608 9.5817C44.7943 9.5817 44.735 9.58836 44.6818 9.60171C44.6419 9.60171 44.5955 9.60171 44.5427 9.60171C44.4366 9.60171 44.3769 9.59505 44.3636 9.5817L44.304 9.66175C43.933 10.1554 43.5353 10.6424 43.1111 11.1228C42.6869 11.5897 42.2229 12.0234 41.7192 12.4237C41.6663 12.4637 41.6264 12.4837 41.5999 12.4837C41.547 12.4837 41.5204 12.457 41.5204 12.4037C41.5204 12.2969 41.5999 12.1768 41.7591 12.0434C42.17 11.6965 42.5744 11.3095 42.972 10.8826C43.3696 10.4423 43.7274 9.98197 44.0455 9.50165C43.9262 9.42158 43.8665 9.26148 43.8665 9.02131C43.8665 8.66107 43.9793 8.27413 44.2047 7.86051C44.3637 7.58032 44.5359 7.37351 44.7217 7.24009C44.9205 7.09332 45.0927 7.01993 45.2386 7.01993C45.5169 7.01993 45.656 7.18672 45.656 7.52029C45.656 7.73375 45.5766 8.00063 45.4174 8.32084C45.3512 8.48094 45.2185 8.68775 45.0197 8.94127C44.8342 9.18144 44.6487 9.35488 44.4632 9.46163C44.7415 9.36823 45.0927 9.30817 45.5169 9.2815C45.9544 9.24147 46.3189 9.22146 46.6105 9.22146C46.7827 9.22146 46.9948 9.27483 47.2468 9.38155C47.4985 9.47495 47.6243 9.6484 47.6243 9.90192C47.6243 10.0754 47.5449 10.2622 47.3859 10.4623C47.346 10.5157 47.24 10.6424 47.0678 10.8426C46.8956 11.0427 46.7032 11.2829 46.4911 11.5631C46.2923 11.8433 46.1068 12.1235 45.9343 12.4037C45.7621 12.6571 45.623 12.8907 45.5169 13.1041C45.4242 13.3176 45.3778 13.4977 45.3778 13.6445C45.3778 13.858 45.4971 13.9647 45.7355 13.9647C46.0141 13.9647 46.3851 13.8313 46.8489 13.5644C47.313 13.2976 47.8101 12.9573 48.3401 12.5437C48.8836 12.1168 49.3808 11.6765 49.8316 11.2228C49.8844 11.1695 49.9308 11.1428 49.9707 11.1428C50.0236 11.1428 50.0502 11.1761 50.0502 11.2429C50.0502 11.3229 50.0171 11.3963 49.9506 11.463C49.4868 11.93 48.9699 12.4103 48.3997 12.904C47.8432 13.3843 47.2598 13.7913 46.6501 14.1248C46.0537 14.4584 45.4705 14.6252 44.9004 14.6252ZM50.2357 14.8253C49.7054 14.8253 49.2414 14.7252 48.8437 14.5251C48.4328 14.3116 48.1348 13.9247 47.949 13.3643C47.936 13.3109 47.9558 13.2776 48.0086 13.2642C48.0485 13.2509 48.0751 13.2776 48.0884 13.3443C48.2207 13.6378 48.3932 13.8446 48.6054 13.9647C48.8174 14.0848 49.0493 14.1448 49.301 14.1448C49.7252 14.1448 50.0965 14.0181 50.4144 13.7646C50.7458 13.5111 51.0374 13.1909 51.2894 12.8039C51.5544 12.417 51.7866 12.0234 51.9854 11.6231C52.1975 11.2095 52.3963 10.8559 52.5818 10.5624C52.8733 10.0687 53.2181 9.62172 53.6157 9.22146C54.0266 8.82117 54.3976 8.57433 54.7291 8.48094C54.6496 8.44091 54.5501 8.4209 54.4307 8.4209C54.0996 8.4209 53.735 8.52096 53.3374 8.72111C52.9395 8.92125 52.5354 9.18144 52.1245 9.50165C51.7269 9.82187 51.3358 10.1621 50.9514 10.5223C50.5801 10.8693 50.2357 11.1961 49.9175 11.503C49.6127 11.7965 49.3675 12.0301 49.1817 12.2035C49.0756 12.2969 48.9962 12.3436 48.9433 12.3436C48.8901 12.3436 48.8638 12.3169 48.8638 12.2635C48.8638 12.1835 48.8969 12.1101 48.9631 12.0434C49.3607 11.6965 49.7716 11.3095 50.1958 10.8826C50.62 10.4423 51.0507 10.022 51.4882 9.62172C51.9257 9.20811 52.3697 8.86788 52.8205 8.60104C53.271 8.33416 53.7282 8.20074 54.1923 8.20074C54.2452 8.20074 54.2916 8.20074 54.3315 8.20074C54.3843 8.20074 54.4375 8.20743 54.4904 8.22075C54.6363 8.23411 54.7689 8.27413 54.8883 8.34085C55.0206 8.40755 55.0605 8.45426 55.0073 8.48094C54.7025 8.61436 54.4641 8.88123 54.2916 9.2815C54.1193 9.68176 53.9604 10.1487 53.8145 10.6825C53.6686 11.2161 53.4898 11.7565 53.2777 12.3036C53.0789 12.8506 52.7871 13.3376 52.4028 13.7646C52.5883 13.6979 52.8801 13.5444 53.2777 13.3043C53.6754 13.0641 54.1129 12.7706 54.5899 12.4237C55.067 12.0634 55.511 11.6698 55.9219 11.2429C55.9751 11.1895 56.0279 11.1628 56.0811 11.1628C56.1473 11.1628 56.1804 11.1961 56.1804 11.2629C56.1804 11.3162 56.1541 11.3696 56.1009 11.423C55.7432 11.7699 55.3456 12.1435 54.9081 12.5437C54.4706 12.9307 53.9935 13.2976 53.4766 13.6445C52.9729 13.9914 52.4491 14.2783 51.9056 14.5051C51.3623 14.7186 50.8055 14.8253 50.2357 14.8253ZM56.2926 14.6252C55.8817 14.6252 55.5636 14.4984 55.3382 14.2449C55.1131 13.9781 55.0002 13.6378 55.0002 13.2242C55.0002 12.8373 55.0998 12.4103 55.2986 11.9433C55.5107 11.4763 55.8418 11.0027 56.2926 10.5223C56.7567 10.0153 57.333 9.60837 58.0225 9.30151C58.7117 8.98129 59.3678 8.82117 59.9908 8.82117C60.4944 8.82117 60.9254 8.93458 61.2832 9.1614C61.6412 9.37489 61.8796 9.6484 61.9989 9.98197C62.1449 9.98197 62.3239 10.022 62.5357 10.1021C62.7611 10.1821 62.8739 10.3289 62.8739 10.5424C62.8739 10.6891 62.801 10.8559 62.655 11.0427C62.5623 11.1761 62.3965 11.3763 62.1582 11.6431C61.9328 11.91 61.7207 12.1968 61.5219 12.5037C61.3626 12.7439 61.2368 12.9707 61.144 13.1842C61.0513 13.3843 61.0049 13.5578 61.0049 13.7045C61.0049 13.9047 61.1042 14.0047 61.303 14.0047C61.5284 14.0047 61.8663 13.878 62.3171 13.6245C62.8075 13.3443 63.278 13.0241 63.7288 12.6638C64.1793 12.3036 64.5308 12.0167 64.7825 11.8032C64.8487 11.7499 64.8954 11.7232 64.9217 11.7232C64.9748 11.7232 65.0011 11.7565 65.0011 11.8233C65.0011 11.9033 64.968 11.9767 64.9019 12.0434C64.7825 12.1501 64.5506 12.3503 64.2059 12.6438C63.8615 12.9373 63.4635 13.2442 63.0131 13.5644C62.5756 13.8847 62.1449 14.1448 61.7207 14.345C61.5086 14.4384 61.3098 14.5118 61.1242 14.5651C60.9517 14.6051 60.7928 14.6252 60.6469 14.6252C60.2891 14.6252 60.0174 14.5251 59.8319 14.325C59.6463 14.1115 59.5533 13.838 59.5533 13.5044C59.5533 13.371 59.5734 13.2309 59.613 13.0841C59.6528 12.9373 59.6992 12.7906 59.7521 12.6438L59.8915 12.3036C59.5468 12.7305 59.2021 13.0908 58.8576 13.3843C58.5129 13.6645 58.1681 13.9113 57.8237 14.1248C57.5321 14.2983 57.2536 14.425 56.9886 14.5051C56.7366 14.5851 56.5047 14.6252 56.2926 14.6252ZM56.9091 14.1048C57.1475 14.1048 57.4923 13.9647 57.9431 13.6845C58.3935 13.391 58.9173 12.944 59.5137 12.3436C59.5932 12.2635 59.7391 12.1235 59.9512 11.9233C60.1763 11.7098 60.415 11.4763 60.667 11.2228C60.9186 10.956 61.1307 10.6958 61.303 10.4423C61.4888 10.1755 61.5815 9.95529 61.5815 9.78185C61.5815 9.52833 61.3626 9.40156 60.9254 9.40156C60.5408 9.40156 60.077 9.555 59.5335 9.86189C59.0033 10.1554 58.4931 10.5957 58.0024 11.1828C57.4988 11.7832 57.1277 12.3036 56.889 12.7439C56.6637 13.1708 56.5511 13.4977 56.5511 13.7245C56.5511 13.9781 56.6705 14.1048 56.9091 14.1048ZM66.007 14.6252C65.4767 14.6252 65.119 14.5118 64.9335 14.2849C64.748 14.0448 64.6549 13.7779 64.6549 13.4844C64.6549 13.0307 64.7545 12.6505 64.9533 12.3436C65.1654 12.0367 65.4371 11.6898 65.7686 11.3029C65.5033 11.5297 65.2516 11.7499 65.0129 11.9633C64.7875 12.1635 64.602 12.3169 64.4561 12.4237C64.4165 12.4637 64.3766 12.4837 64.3371 12.4837C64.2839 12.4837 64.2573 12.457 64.2573 12.4037C64.2573 12.2969 64.3371 12.1768 64.496 12.0434C64.8274 11.7899 65.1719 11.483 65.5299 11.1228C65.9009 10.7492 66.2457 10.4023 66.5638 10.0821C66.882 9.74849 67.1469 9.52833 67.359 9.42158C67.505 9.34153 67.6441 9.28816 67.7767 9.26148C67.9091 9.22146 68.0219 9.20145 68.1147 9.20145C68.2603 9.20145 68.3664 9.22812 68.4328 9.2815C68.499 9.32152 68.5123 9.36823 68.4724 9.42158C68.2473 9.66175 68.0219 9.96195 67.7965 10.3222C67.5711 10.6691 67.3658 11.036 67.18 11.423C66.9945 11.8099 66.8421 12.1835 66.7227 12.5437C66.6167 12.8907 66.5638 13.1775 66.5638 13.4043C66.5638 13.6845 66.6566 13.8246 66.8421 13.8246C66.988 13.8246 67.1537 13.7579 67.3392 13.6245C67.538 13.4911 67.7236 13.3443 67.8958 13.1842C68.1079 12.9974 68.3333 12.7572 68.572 12.4637C68.8106 12.1568 69.0558 11.8433 69.3075 11.523C69.5595 11.1895 69.8047 10.8959 70.0434 10.6424C70.2422 10.4156 70.4475 10.2288 70.6596 10.0821C70.885 9.92193 71.1237 9.84188 71.3753 9.84188C71.5609 9.84188 71.7 9.88191 71.793 9.96195C71.8858 10.042 71.9056 10.1087 71.8524 10.1621C71.5874 10.4423 71.3423 10.7759 71.1169 11.1628C70.9048 11.5497 70.7325 11.9433 70.5999 12.3436C70.4806 12.7305 70.4209 13.0774 70.4209 13.3843C70.4209 13.6779 70.5136 13.8246 70.6995 13.8246C70.8451 13.8246 71.0108 13.7579 71.1963 13.6245C71.3951 13.4911 71.5874 13.3443 71.773 13.1842C71.9718 12.9974 72.1576 12.8106 72.3298 12.6238C72.5153 12.4237 72.6943 12.2169 72.8665 12.0034C72.8931 11.3095 72.9794 10.7425 73.125 10.3022C73.2842 9.84854 73.4697 9.50832 73.6818 9.2815C73.7613 9.17475 73.927 9.08135 74.1787 9.0013C74.444 8.92125 74.6824 8.88123 74.8945 8.88123C75.1465 8.88123 75.2723 8.94793 75.2723 9.08135C75.2723 9.13472 75.2327 9.21477 75.153 9.32152C75.0073 9.49496 74.8283 9.72847 74.6162 10.022C74.4174 10.3022 74.2319 10.5957 74.0597 10.9026C73.8871 11.1961 73.7678 11.4563 73.7016 11.6831C73.6488 11.8966 73.6222 12.0901 73.6222 12.2635C73.6222 12.5171 73.7081 12.6438 73.8807 12.6438C74.0396 12.6438 74.2452 12.5437 74.4969 12.3436C74.5367 12.3036 74.6162 12.2369 74.7355 12.1435C74.8549 12.0501 74.9742 11.95 75.0933 11.8433C75.2126 11.7365 75.2989 11.6565 75.3518 11.6031C75.4182 11.5364 75.4711 11.503 75.511 11.503C75.5509 11.503 75.5707 11.5364 75.5707 11.6031C75.5707 11.6831 75.5509 11.7432 75.511 11.7832C75.3916 11.9033 75.2327 12.0567 75.0339 12.2435C74.8348 12.4303 74.6824 12.5637 74.5766 12.6438C74.4573 12.7372 74.3049 12.8306 74.119 12.924C73.9335 13.0174 73.748 13.0641 73.5625 13.0641C73.4033 13.0641 73.2576 13.0107 73.125 12.904C73.0057 12.7973 72.9327 12.6171 72.9064 12.3636C72.4157 12.9507 71.8991 13.4777 71.3555 13.9447C70.812 14.3983 70.3083 14.6252 69.8443 14.6252C69.3143 14.6252 68.9563 14.5118 68.7708 14.2849C68.5985 14.0448 68.5123 13.7846 68.5123 13.5044C68.5123 13.3043 68.5454 13.0908 68.6115 12.8639C68.1743 13.3443 67.7236 13.7579 67.2598 14.1048C66.809 14.4517 66.3916 14.6252 66.007 14.6252Z" fill="#0A0A0A"/>
</g>
<defs>
<clipPath id="clip0_1_12394">
<rect width="92" height="56.131" fill="white" transform="translate(0 0.934517)"/>
</clipPath>
</defs>
</svg>
